<svg id="Ebene_1" data-name="Ebene 1" xmlns="http://www.w3.org/2000/svg" viewBox="0 0 71 76.3"><title>Zeichenfläche 1</title><path d="M6.68,74c-.6-1.3-1.4-3.1-1.8-4l-.6-1.7-2,2.2-2,2.2-.2-4.2a65.36,65.36,0,0,1,1.2-16.6,36.33,36.33,0,0,1,18.8-23.4l2.1-1-.5-1.5a17.68,17.68,0,0,1-.7-3.6l-.2-2.1-2.1-.2c-3.2-.3-4.9-1.2-6-3.5-.6-1.2-.6-1.4-.4-4.6.2-4.2.5-5.1,1.8-6.5,1.6-1.8,2.7-2.1,6.7-1.9,2.9.2,3.5.3,4.8.9.8.4,1.5.8,1.6.8a19,19,0,0,0,2.1-2.6L31.18,0l1.2.7c.7.4,1.5.9,1.9,1.1l.7.4-.6,1.5a18.16,18.16,0,0,0-.8,2.9L33.38,8l1.7.2a13.86,13.86,0,0,1,12.4,9.9,16.52,16.52,0,0,1,0,7c-.5,1.6-.5,1.7-.1,1.7.7,0,5.4,2.3,7.3,3.5a40.36,40.36,0,0,1,10.4,10.2,32.5,32.5,0,0,1,5.6,22,37.66,37.66,0,0,1-2.9,12.3l-.6,1.4h-5l1.2-2.4a34.34,34.34,0,0,0,2.8-9.4,48.75,48.75,0,0,0,.1-9.3l-.2-.7-1.3,1.4c-3.2,3.5-7.9,4.5-14.2,2.8a40.82,40.82,0,0,0-12.7-1.7,26.93,26.93,0,0,0-7.3.6c-5.8,1.3-9.9,3.2-15.6,7.3-2.1,1.5-3.8,2.7-3.9,2.7a9.83,9.83,0,0,1,.6-2.3c.4-1.3,1.1-3.4,1.5-4.8l.8-2.5-.9.9c-.5.5-1.9,1.9-3.1,3.2l-2.1,2.3.5,1.9a27.7,27.7,0,0,0,3.5,7.9A20.33,20.33,0,0,1,13,76a12.35,12.35,0,0,1-2.6.1H7.78L6.68,74Zm8.8-24.2c4.8-5.1,8.7-9.2,8.8-9.2a21.3,21.3,0,0,1-.9,3.3c-3.3,10.4-4,12.4-3.9,12.5s1.2-.4,2.5-.9c8.5-3.7,18.4-4.2,28.9-1.4,4.7,1.2,6.5,1.2,8.8,0a5,5,0,0,0,2.4-2.1,7.59,7.59,0,0,0,.5-6.3c-1.7-4.8-8.3-11-14.5-13.7-3.2-1.4-3.4-1.4-4.1-.7l-.6.6,2.6,3.2a35.5,35.5,0,0,1,3.1,4.1,5.37,5.37,0,0,1,.1,4.3,5,5,0,0,1-5.1,2.5c-.8-.2-1.1-.1-1.9.5-2.2,1.6-4.6,1.2-6.6-1.2-1.6-1.8-2-2.7-2.1-4.5a6.66,6.66,0,0,0-.5-2.4,4.81,4.81,0,0,1-.4-2.2l.1-1.4-1.3-.3a17.23,17.23,0,0,1-5.1-2.4,5.52,5.52,0,0,0-1.3-.8,20.38,20.38,0,0,0-2.9,1.3,31.22,31.22,0,0,0-17,24.8c-.1,1-.2,2.3-.3,2.8l-.1.9L5.78,60c.5-.5,4.9-5.1,9.7-10.2Zm25.9-7.4a8.75,8.75,0,0,1,1.9-1.3c.1,0,.4.3.7.7a1,1,0,0,0,1.8.1c.3-.5.3-.6-5.6-7.8-3.5-4.3-4.2-5-4.7-5-1.2.1-.9,1,1,3.3l1.8,2.2-1,.8c-1.1,1-1.2,1.2-.5,1.8.5.5.6.4,1.6-.3l1.1-.7.7.6a1.68,1.68,0,0,1,.6.9c0,.2-.8.9-1.7,1.7a5.3,5.3,0,0,0-1.6,1.7,6.19,6.19,0,0,0,1.4,2.2c.3.6.8.4,2.5-.9Zm-10.3-14.2a5,5,0,0,1,4.6-3.2,6.12,6.12,0,0,1,3.8,2.1l1,1.2.9-1.1a8.4,8.4,0,0,0,.8-10.1c-1.5-2.5-4.3-4-8.2-4.4-2.1-.2-2.6-.4-3.7-1.5l-.8-.8-.4.6a44.17,44.17,0,0,0-3,6.6,12.47,12.47,0,0,0,.5,7.7c.9,1.7,3.3,4,4,3.7.1.1.3-.3.5-.8Zm-8.9-13.6c.2-.5.7-1.8,1.2-2.8a9.08,9.08,0,0,0,.9-2.3c0-.9-1-1.3-3.7-1.5-2.4-.2-2.6-.1-3.1.4a2.11,2.11,0,0,0-.6,1.6c0,.6-.1,1.7-.2,2.6-.2,2.1.1,2.5,2.2,2.8C22,15.59,21.88,15.59,22.18,14.59Zm-3.1-2.4c0-1.7.2-1.9,1.6-1.9H22v2.8h-2.8v-.9Zm6.3,58.3a2.32,2.32,0,0,1-.8-2,2.71,2.71,0,0,1,2.9-3,2.78,2.78,0,0,1,2.9,2.9c0,1.8-1.1,2.8-3,2.9a2.32,2.32,0,0,1-2-.8Zm19.3.3a2.93,2.93,0,0,1,1.8-5.3c1.8,0,2.8,1.1,2.9,3,0,1.1-.1,1.4-.8,2a2.44,2.44,0,0,1-2,.8,3.09,3.09,0,0,1-1.9-.5Z" fill="#f8f2e3"/></svg>